<svg width="9" height="8" viewBox="0 0 9 8" fill="none" xmlns="http://www.w3.org/2000/svg">
<g id="bx:camera" clip-path="url(#clip0_14_824)">
<path id="Vector" d="M4.50618 2.77426C3.80125 2.77426 3.20557 3.36994 3.20557 4.07488C3.20557 4.77981 3.80125 5.37549 4.50618 5.37549C5.21111 5.37549 5.80679 4.77981 5.80679 4.07488C5.80679 3.36994 5.21111 2.77426 4.50618 2.77426ZM4.50618 4.72518C4.15989 4.72518 3.85587 4.42116 3.85587 4.07488C3.85587 3.72859 4.15989 3.42457 4.50618 3.42457C4.85247 3.42457 5.15649 3.72859 5.15649 4.07488C5.15649 4.42116 4.85247 4.72518 4.50618 4.72518Z" fill="white"/>
<path id="Vector_2" d="M7.10716 1.79879H6.26631L5.38612 0.918604C5.35598 0.888351 5.32015 0.864359 5.28069 0.848008C5.24124 0.831658 5.19894 0.823272 5.15624 0.823334H3.85562C3.81292 0.823272 3.77062 0.831658 3.73116 0.848008C3.69171 0.864359 3.65588 0.888351 3.62574 0.918604L2.74555 1.79879H1.9047C1.54606 1.79879 1.25439 2.09046 1.25439 2.4491V6.02579C1.25439 6.38443 1.54606 6.6761 1.9047 6.6761H7.10716C7.4658 6.6761 7.75746 6.38443 7.75746 6.02579V2.4491C7.75746 2.09046 7.4658 1.79879 7.10716 1.79879ZM1.9047 6.02579V2.4491H2.88016C2.96665 2.4491 3.04924 2.41496 3.11005 2.35383L3.99024 1.47364H5.02162L5.90181 2.35383C5.93196 2.38408 5.96779 2.40808 6.00724 2.42443C6.04669 2.44078 6.08899 2.44916 6.1317 2.4491H7.10716L7.10781 6.02579H1.9047Z" fill="white"/>
</g>
<defs>
<clipPath id="clip0_14_824">
<rect width="7.80368" height="7.80368" fill="white" transform="translate(0.603516 0.172852)"/>
</clipPath>
</defs>
</svg>
