<svg width="8" height="8" viewBox="0 0 8 8" fill="none" xmlns="http://www.w3.org/2000/svg">
<g id="la:file-invoice-dollar">
<path id="Vector" d="M1.5 0.750076V7.25008H5.5V6.75008H2V1.25008H4.5V2.75008H6V3.25008H6.5V2.40008L6.425 2.32508L4.925 0.825076L4.85 0.750076H1.5ZM5 1.60008L5.65 2.25008H5V1.60008ZM2.5 3.25008V3.75008H5.5V3.25008H2.5ZM6.75 3.75008V4.25008C6.325 4.32508 6 4.67508 6 5.12508C6 5.62508 6.375 6.00008 6.875 6.00008H7.125C7.325 6.00008 7.5 6.17508 7.5 6.37508C7.5 6.57508 7.325 6.75008 7.125 6.75008H6.25V7.25008H6.75V7.75008H7.25V7.25008C7.675 7.17508 8 6.82508 8 6.37508C8 5.87508 7.625 5.50008 7.125 5.50008H6.875C6.675 5.50008 6.5 5.32508 6.5 5.12508C6.5 4.92508 6.675 4.75008 6.875 4.75008H7.75V4.25008H7.25V3.75008H6.75ZM2.5 4.50008V5.00008H4.25V4.50008H2.5ZM4.75 4.50008V5.00008H5.5V4.50008H4.75ZM2.5 5.50008V6.00008H4.25V5.50008H2.5ZM4.75 5.50008V6.00008H5.5V5.50008H4.75Z" fill="#556EE6"/>
</g>
</svg>
