<svg width="8" height="8" viewBox="0 0 8 8" fill="none" xmlns="http://www.w3.org/2000/svg">
<g id="Icon/download">
<path id="Icon" fill-rule="evenodd" clip-rule="evenodd" d="M1.2002 6.79999C1.2002 6.57907 1.37928 6.39999 1.6002 6.39999H6.4002C6.62111 6.39999 6.8002 6.57907 6.8002 6.79999C6.8002 7.0209 6.62111 7.19999 6.4002 7.19999H1.6002C1.37928 7.19999 1.2002 7.0209 1.2002 6.79999ZM2.51735 3.71714C2.67356 3.56094 2.92683 3.56094 3.08304 3.71715L3.6002 4.2343L3.60019 1.19999C3.60019 0.979074 3.77928 0.799988 4.0002 0.799988C4.22111 0.799988 4.4002 0.979074 4.4002 1.19999V4.2343L4.91735 3.71714C5.07356 3.56094 5.32683 3.56094 5.48304 3.71715C5.63925 3.87335 5.63925 4.12662 5.48304 4.28283L4.28304 5.48283C4.20802 5.55785 4.10628 5.59999 4.0002 5.59999C3.89411 5.59999 3.79237 5.55785 3.71735 5.48283L2.51735 4.28283C2.36114 4.12662 2.36114 3.87335 2.51735 3.71714Z" fill="#495057"/>
</g>
</svg>
