<svg width="8" height="8" viewBox="0 0 8 8" fill="none" xmlns="http://www.w3.org/2000/svg">
<g id="Icon/hashtag">
<path id="Icon" fill-rule="evenodd" clip-rule="evenodd" d="M3.69682 1.21193C3.91114 1.26551 4.04144 1.48268 3.98786 1.697L3.81212 2.39998H4.98749L5.21175 1.50297C5.26533 1.28865 5.4825 1.15835 5.69682 1.21193C5.91114 1.26551 6.04144 1.48268 5.98786 1.697L5.81211 2.39998H6.7998C7.02072 2.39998 7.1998 2.57907 7.1998 2.79998C7.1998 3.0209 7.02072 3.19998 6.7998 3.19998H5.61211L5.21211 4.79998H5.9998C6.22072 4.79998 6.3998 4.97907 6.3998 5.19999C6.3998 5.4209 6.22072 5.59998 5.9998 5.59998H5.01212L4.78786 6.497C4.73428 6.71132 4.51711 6.84162 4.30279 6.78804C4.08847 6.73446 3.95817 6.51729 4.01175 6.30297L4.18749 5.59998H3.01212L2.78786 6.497C2.73428 6.71132 2.51711 6.84162 2.30279 6.78804C2.08847 6.73446 1.95817 6.51729 2.01175 6.30297L2.18749 5.59998H1.1998C0.978891 5.59998 0.799805 5.4209 0.799805 5.19999C0.799805 4.97907 0.978891 4.79998 1.1998 4.79998H2.38749L2.78749 3.19998H1.9998C1.77889 3.19998 1.5998 3.0209 1.5998 2.79998C1.5998 2.57907 1.77889 2.39998 1.9998 2.39998H2.98749L3.21175 1.50297C3.26533 1.28865 3.4825 1.15835 3.69682 1.21193ZM3.61212 3.19998L3.21212 4.79998H4.38749L4.78749 3.19998H3.61212Z" fill="#495057"/>
</g>
</svg>
