<svg width="8" height="8" viewBox="0 0 8 8" fill="none" xmlns="http://www.w3.org/2000/svg">
<g id="Icon/printer" clip-path="url(#clip0_1123_1150)">
<path id="Icon" fill-rule="evenodd" clip-rule="evenodd" d="M1.9998 1.59999V2.79999H1.5998C1.15798 2.79999 0.799805 3.15816 0.799805 3.59999V4.79999C0.799805 5.24182 1.15798 5.59999 1.5998 5.59999H1.9998V6.39999C1.9998 6.84181 2.35798 7.19999 2.7998 7.19999H5.1998C5.64163 7.19999 5.9998 6.84181 5.9998 6.39999V5.59999H6.3998C6.84163 5.59999 7.1998 5.24182 7.1998 4.79999V3.59999C7.1998 3.15816 6.84163 2.79999 6.3998 2.79999H5.9998V1.59999C5.9998 1.15816 5.64163 0.799988 5.1998 0.799988H2.7998C2.35798 0.799988 1.9998 1.15816 1.9998 1.59999ZM5.1998 1.59999H2.7998V2.79999H5.1998V1.59999ZM5.1998 4.79999H2.7998V6.39999H5.1998V4.79999Z" fill="white"/>
</g>
<defs>
<clipPath id="clip0_1123_1150">
<rect width="8" height="8" fill="white"/>
</clipPath>
</defs>
</svg>
