<svg width="8" height="8" viewBox="0 0 8 8" fill="none" xmlns="http://www.w3.org/2000/svg">
<g id="Icon/status-online">
<path id="Icon" fill-rule="evenodd" clip-rule="evenodd" d="M2.02 1.45432C2.17621 1.61053 2.17621 1.86379 2.02 2.02C0.926536 3.11347 0.926535 4.88633 2.02 5.9798C2.17621 6.13601 2.17621 6.38928 2.02 6.54548C1.86379 6.70169 1.61053 6.70169 1.45432 6.54548C0.0484305 5.1396 0.0484306 2.8602 1.45432 1.45432C1.61053 1.29811 1.86379 1.29811 2.02 1.45432ZM5.97981 1.45441C6.13602 1.2982 6.38928 1.2982 6.54549 1.45441C7.95138 2.8603 7.95138 5.13969 6.54549 6.54558C6.38928 6.70179 6.13602 6.70179 5.97981 6.54558C5.8236 6.38937 5.8236 6.1361 5.97981 5.97989C7.07327 4.88642 7.07327 3.11356 5.97981 2.02009C5.8236 1.86388 5.8236 1.61062 5.97981 1.45441ZM3.15138 2.58569C3.30759 2.7419 3.30759 2.99516 3.15138 3.15137C2.68275 3.62 2.68275 4.3798 3.15138 4.84843C3.30759 5.00464 3.30759 5.2579 3.15138 5.41411C2.99517 5.57032 2.7419 5.57032 2.58569 5.41411C1.80464 4.63307 1.80464 3.36674 2.58569 2.58569C2.7419 2.42948 2.99517 2.42948 3.15138 2.58569ZM4.84843 2.58578C5.00464 2.42957 5.25791 2.42957 5.41412 2.58578C6.19517 3.36683 6.19517 4.63316 5.41412 5.41421C5.25791 5.57042 5.00464 5.57042 4.84843 5.41421C4.69222 5.258 4.69222 5.00473 4.84843 4.84852C5.31706 4.37989 5.31706 3.62009 4.84843 3.15146C4.69222 2.99525 4.69222 2.74199 4.84843 2.58578ZM3.9999 3.59999C4.22082 3.59999 4.3999 3.77908 4.3999 3.99999V4.00399C4.3999 4.22491 4.22082 4.40399 3.9999 4.40399C3.77899 4.40399 3.5999 4.22491 3.5999 4.00399V3.99999C3.5999 3.77908 3.77899 3.59999 3.9999 3.59999Z" fill="#495057"/>
</g>
</svg>
