<svg width="8" height="8" viewBox="0 0 8 8" fill="none" xmlns="http://www.w3.org/2000/svg">
<g id="Icon/Outline/view-grid" clip-path="url(#clip0_1065_599)">
<g id="Icon">
<path d="M1.3335 1.99998C1.3335 1.63179 1.63197 1.33331 2.00016 1.33331H2.66683C3.03502 1.33331 3.3335 1.63179 3.3335 1.99998V2.66665C3.3335 3.03484 3.03502 3.33331 2.66683 3.33331H2.00016C1.63197 3.33331 1.3335 3.03484 1.3335 2.66665V1.99998Z" stroke="#495057" stroke-width="0.8" stroke-linecap="round" stroke-linejoin="round"/>
<path d="M4.66683 1.99998C4.66683 1.63179 4.96531 1.33331 5.3335 1.33331H6.00016C6.36835 1.33331 6.66683 1.63179 6.66683 1.99998V2.66665C6.66683 3.03484 6.36835 3.33331 6.00016 3.33331H5.3335C4.96531 3.33331 4.66683 3.03484 4.66683 2.66665V1.99998Z" stroke="#495057" stroke-width="0.8" stroke-linecap="round" stroke-linejoin="round"/>
<path d="M1.3335 5.33331C1.3335 4.96512 1.63197 4.66665 2.00016 4.66665H2.66683C3.03502 4.66665 3.3335 4.96512 3.3335 5.33331V5.99998C3.3335 6.36817 3.03502 6.66665 2.66683 6.66665H2.00016C1.63197 6.66665 1.3335 6.36817 1.3335 5.99998V5.33331Z" stroke="#495057" stroke-width="0.8" stroke-linecap="round" stroke-linejoin="round"/>
<path d="M4.66683 5.33331C4.66683 4.96512 4.96531 4.66665 5.3335 4.66665H6.00016C6.36835 4.66665 6.66683 4.96512 6.66683 5.33331V5.99998C6.66683 6.36817 6.36835 6.66665 6.00016 6.66665H5.3335C4.96531 6.66665 4.66683 6.36817 4.66683 5.99998V5.33331Z" stroke="#495057" stroke-width="0.8" stroke-linecap="round" stroke-linejoin="round"/>
</g>
</g>
<defs>
<clipPath id="clip0_1065_599">
<rect width="8" height="8" fill="white"/>
</clipPath>
</defs>
</svg>
