<svg width="10" height="10" viewBox="0 0 10 10" fill="none" xmlns="http://www.w3.org/2000/svg">
<g id="Icon/eye-off">
<g id="Icon">
<path fill-rule="evenodd" clip-rule="evenodd" d="M1.85307 1.14645C1.6578 0.951184 1.34122 0.951184 1.14596 1.14645C0.950696 1.34171 0.950696 1.65829 1.14596 1.85355L8.14596 8.85355C8.34122 9.04882 8.6578 9.04882 8.85307 8.85355C9.04833 8.65829 9.04833 8.34171 8.85307 8.14645L8.11648 7.40986C8.88525 6.7962 9.46902 5.96055 9.77071 4.99998C9.13357 2.97144 7.23843 1.5 4.99962 1.5C4.18783 1.5 3.42123 1.69346 2.74341 2.03679L1.85307 1.14645ZM3.98358 3.27696L4.74052 4.0339C4.82316 4.01179 4.91002 4 4.99964 4C5.55192 4 5.99964 4.44772 5.99964 5C5.99964 5.08962 5.98785 5.17648 5.96574 5.25912L6.72268 6.01606C6.89866 5.71829 6.99964 5.37094 6.99964 5C6.99964 3.89543 6.10421 3 4.99964 3C4.6287 3 4.28135 3.10098 3.98358 3.27696Z" fill="#555B6D"/>
<path d="M6.22655 8.34835L4.87434 6.99614C3.86958 6.93403 3.06561 6.13006 3.0035 5.1253L1.16697 3.28877C0.749827 3.78612 0.427696 4.36584 0.228516 5.00002C0.865653 7.02856 2.76079 8.5 4.99961 8.5C5.42294 8.5 5.83398 8.44739 6.22655 8.34835Z" fill="#555B6D"/>
</g>
</g>
</svg>
