<svg width="8" height="9" viewBox="0 0 8 9" fill="none" xmlns="http://www.w3.org/2000/svg">
<g id="Icon/lock-closed">
<path id="Icon" fill-rule="evenodd" clip-rule="evenodd" d="M2.0002 4.1V3.3C2.0002 2.19543 2.89563 1.3 4.0002 1.3C5.10476 1.3 6.0002 2.19543 6.0002 3.3V4.1C6.44202 4.1 6.8002 4.45818 6.8002 4.9V6.9C6.8002 7.34183 6.44202 7.7 6.0002 7.7H2.0002C1.55837 7.7 1.2002 7.34183 1.2002 6.9V4.9C1.2002 4.45818 1.55837 4.1 2.0002 4.1ZM5.2002 3.3V4.1H2.8002V3.3C2.8002 2.63726 3.33745 2.1 4.0002 2.1C4.66294 2.1 5.2002 2.63726 5.2002 3.3Z" fill="#556EE6"/>
</g>
</svg>
