<svg width="10" height="10" viewBox="0 0 10 10" fill="none" xmlns="http://www.w3.org/2000/svg">
<g id="Icon/trash">
<path id="Icon" fill-rule="evenodd" clip-rule="evenodd" d="M4.57045 1.71451C4.40812 1.71451 4.25972 1.80622 4.18713 1.95142L3.87701 2.57165H2.42759C2.1909 2.57165 1.99902 2.76353 1.99902 3.00022C1.99902 3.23692 2.1909 3.42879 2.42759 3.42879L2.42759 7.71451C2.42759 8.18789 2.81135 8.57165 3.28474 8.57165H6.71331C7.1867 8.57165 7.57045 8.18789 7.57045 7.71451V3.42879C7.80715 3.42879 7.99902 3.23692 7.99902 3.00022C7.99902 2.76353 7.80715 2.57165 7.57045 2.57165H6.12104L5.81092 1.95142C5.73832 1.80622 5.58993 1.71451 5.4276 1.71451H4.57045ZM3.71331 4.28594C3.71331 4.04924 3.90519 3.85737 4.14188 3.85737C4.37857 3.85737 4.57045 4.04924 4.57045 4.28594V6.85736C4.57045 7.09406 4.37857 7.28594 4.14188 7.28594C3.90519 7.28594 3.71331 7.09406 3.71331 6.85736V4.28594ZM5.85617 3.85737C5.61947 3.85737 5.42759 4.04924 5.42759 4.28594V6.85736C5.42759 7.09406 5.61947 7.28594 5.85617 7.28594C6.09286 7.28594 6.28474 7.09406 6.28474 6.85736V4.28594C6.28474 4.04924 6.09286 3.85737 5.85617 3.85737Z" fill="#495057"/>
</g>
</svg>
