<svg width="10" height="10" viewBox="0 0 10 10" fill="none" xmlns="http://www.w3.org/2000/svg">
<g id="Icon/pencil-alt">
<g id="Icon">
<path d="M8.17738 1.96556C7.84264 1.63082 7.29993 1.63082 6.9652 1.96556L3.71415 5.21661V6.42879H4.92633L8.17738 3.17774C8.51212 2.84301 8.51212 2.30029 8.17738 1.96556Z" fill="#495057"/>
<path fill-rule="evenodd" clip-rule="evenodd" d="M1.57129 3.42879C1.57129 2.95541 1.95504 2.57165 2.42843 2.57165H4.14272C4.37941 2.57165 4.57129 2.76353 4.57129 3.00022C4.57129 3.23692 4.37941 3.42879 4.14272 3.42879H2.42843V7.71451H6.71415V6.00022C6.71415 5.76353 6.90602 5.57165 7.14272 5.57165C7.37941 5.57165 7.57129 5.76353 7.57129 6.00022V7.71451C7.57129 8.18789 7.18753 8.57165 6.71415 8.57165H2.42843C1.95504 8.57165 1.57129 8.18789 1.57129 7.71451V3.42879Z" fill="#495057"/>
</g>
</g>
</svg>
