<svg width="8" height="8" viewBox="0 0 8 8" fill="none" xmlns="http://www.w3.org/2000/svg">
<g id="akar-icons:circle-chevron-down-fill" clip-path="url(#clip0_14_3311)">
<path id="Vector" fill-rule="evenodd" clip-rule="evenodd" d="M3.99967 0.333344C1.97467 0.333344 0.333008 1.97501 0.333008 4.00001C0.333008 6.02501 1.97467 7.66668 3.99967 7.66668C6.02467 7.66668 7.66634 6.02501 7.66634 4.00001C7.66634 1.97501 6.02467 0.333344 3.99967 0.333344ZM2.90201 3.26434C2.83914 3.20362 2.75494 3.17003 2.66754 3.17079C2.58014 3.17155 2.49654 3.2066 2.43474 3.2684C2.37293 3.33021 2.33788 3.41381 2.33712 3.50121C2.33636 3.58861 2.36996 3.67281 2.43067 3.73568L3.76401 5.06901C3.82652 5.1315 3.91129 5.16661 3.99967 5.16661C4.08806 5.16661 4.17283 5.1315 4.23534 5.06901L5.56868 3.73568C5.62939 3.67281 5.66299 3.58861 5.66223 3.50121C5.66147 3.41381 5.62642 3.33021 5.56461 3.2684C5.50281 3.2066 5.41921 3.17155 5.33181 3.17079C5.24441 3.17003 5.16021 3.20362 5.09734 3.26434L3.99967 4.36201L2.90201 3.26434Z" fill="#A6B0CF"/>
</g>
<defs>
<clipPath id="clip0_14_3311">
<rect width="8" height="8" fill="white"/>
</clipPath>
</defs>
</svg>
