<svg width="8" height="8" viewBox="0 0 8 8" fill="none" xmlns="http://www.w3.org/2000/svg">
<g id="Icon/Outline/office-building" clip-path="url(#clip0_574_757)">
<path id="Icon" d="M6.33333 7V1.66667C6.33333 1.29848 6.03486 1 5.66667 1H2.33333C1.96514 1 1.66667 1.29848 1.66667 1.66667V7M6.33333 7L7 6.99999M6.33333 7H4.66667M1.66667 7L1 6.99999M1.66667 7H3.33333M3 2.33333H3.33333M3 3.66666H3.33333M4.66667 2.33333H5M4.66667 3.66666H5M3.33333 7V5.33333C3.33333 5.14923 3.48257 4.99999 3.66667 4.99999H4.33333C4.51743 4.99999 4.66667 5.14923 4.66667 5.33333V7M3.33333 7H4.66667" stroke="#404040" stroke-width="0.8" stroke-linecap="round" stroke-linejoin="round"/>
</g>
<defs>
<clipPath id="clip0_574_757">
<rect width="8" height="8" fill="white"/>
</clipPath>
</defs>
</svg>
