<svg width="8" height="8" viewBox="0 0 8 8" fill="none" xmlns="http://www.w3.org/2000/svg">
<g id="Icon/reply">
<path id="Icon" fill-rule="evenodd" clip-rule="evenodd" d="M3.08265 1.31735C3.23886 1.47356 3.23886 1.72683 3.08265 1.88304L2.16549 2.8002H4.3998C5.9462 2.8002 7.1998 4.0538 7.1998 5.6002V6.4002C7.1998 6.62111 7.02072 6.8002 6.7998 6.8002C6.57889 6.8002 6.3998 6.62111 6.3998 6.4002V5.6002C6.3998 4.49563 5.50437 3.6002 4.3998 3.6002H2.16549L3.08265 4.51735C3.23886 4.67356 3.23886 4.92683 3.08265 5.08304C2.92644 5.23925 2.67317 5.23925 2.51696 5.08304L0.916962 3.48304C0.760752 3.32683 0.760752 3.07356 0.916962 2.91735L2.51696 1.31735C2.67317 1.16114 2.92644 1.16114 3.08265 1.31735Z" fill="#495057"/>
</g>
</svg>
