<svg width="10" height="10" viewBox="0 0 10 10" fill="none" xmlns="http://www.w3.org/2000/svg">
<g id="Icon/Outline/bell">
<path id="Icon" d="M6.24999 7.08333H8.33332L7.74793 6.49795C7.58918 6.33919 7.49999 6.12387 7.49999 5.89935V4.58333C7.49999 3.49482 6.80432 2.56879 5.83332 2.22559V2.08333C5.83332 1.6231 5.46023 1.25 4.99999 1.25C4.53975 1.25 4.16666 1.6231 4.16666 2.08333V2.22559C3.19566 2.56879 2.49999 3.49482 2.49999 4.58333V5.89935C2.49999 6.12387 2.4108 6.33919 2.25205 6.49795L1.66666 7.08333H3.74999M6.24999 7.08333V7.5C6.24999 8.19036 5.69035 8.75 4.99999 8.75C4.30963 8.75 3.74999 8.19036 3.74999 7.5V7.08333M6.24999 7.08333H3.74999" stroke="#495057" stroke-width="0.833333" stroke-linecap="round" stroke-linejoin="round"/>
</g>
</svg>
