<svg width="14" height="14" viewBox="0 0 14 14" fill="none" xmlns="http://www.w3.org/2000/svg">
<g id="bi:moon-fill" clip-path="url(#clip0_3_4593)">
<path id="Vector" d="M8.42991 2.19497C8.44568 2.28967 8.43269 2.38693 8.39261 2.47417C8.35253 2.56142 8.28721 2.63464 8.20509 2.68437C7.56045 3.07824 7.02521 3.6279 6.64861 4.28278C5.39205 6.45921 6.14882 9.24594 8.33553 10.5084C8.62078 10.6731 8.91563 10.8037 9.21529 10.9009C9.30732 10.9304 9.38861 10.9864 9.44902 11.0618C9.50943 11.1373 9.54628 11.2288 9.55497 11.3251C9.56476 11.4256 9.54107 11.5265 9.48756 11.6122C9.43406 11.6979 9.35375 11.7634 9.25912 11.7987C8.53353 12.0751 7.7554 12.1861 6.98147 12.1235C6.20754 12.061 5.45733 11.8265 4.78552 11.4372C2.29028 9.99662 1.42982 6.81948 2.85982 4.34265C3.93607 2.47853 6.00343 1.54026 8.02389 1.80322C8.12485 1.81578 8.21901 1.86075 8.29222 1.93139C8.36544 2.00203 8.41375 2.09452 8.42991 2.19497Z" fill="#555B6D"/>
</g>
<defs>
<clipPath id="clip0_3_4593">
<rect width="10" height="10" fill="white" transform="translate(5.26898 0.169861) rotate(30)"/>
</clipPath>
</defs>
</svg>
