<svg width="20" height="14" viewBox="0 0 20 14" fill="none" xmlns="http://www.w3.org/2000/svg">
<g id="American_Express-Logo.wine 1" clip-path="url(#clip0_14_2264)">
<path id="Vector" d="M0.334961 1.50781H19.5414V7.41268L18.5907 8.25864L19.5414 9.01155V12.4462H0.334961V6.87972L0.929126 6.49057L0.334961 6.11834V1.50781Z" fill="#016FD0"/>
<path id="Vector_2" d="M4.06334 10.7561V7.74073H7.25607L7.59863 8.18729L7.95252 7.74073H19.5414V10.5482C19.5414 10.5482 19.2383 10.7531 18.8878 10.7561H12.4708L12.0846 10.2808V10.7561H10.819V9.94473C10.819 9.94473 10.6461 10.058 10.2724 10.058H9.84161V10.7561H7.92543L7.58336 10.3L7.23605 10.7561L4.06334 10.7561ZM0.334961 5.46807L1.05493 3.78955H2.30006L2.70864 4.72979V3.78955H4.25644L4.49968 4.46912L4.73549 3.78955H11.6835V4.1312C11.6835 4.1312 12.0488 3.78955 12.649 3.78955L14.9034 3.79745L15.3049 4.72536V3.78955H16.6002L16.9567 4.32256V3.78955H18.2639V6.80494H16.9567L16.6151 6.27017V6.80492H14.712L14.5206 6.32959H14.0091L13.8208 6.80492H12.5302C12.0137 6.80492 11.6835 6.47026 11.6835 6.47026V6.80492H9.73761L9.35141 6.32961V6.80494H2.11561L1.92436 6.32961H1.41435L1.2245 6.80492H0.334961V5.46807Z" fill="white"/>
<path id="Vector_3" d="M1.30995 4.16201L0.338867 6.41982H0.971098L1.15028 5.9677H2.19193L2.37017 6.41982H3.01634L2.04614 4.16201H1.30995ZM1.66924 4.68745L1.98674 5.47752H1.35081L1.66924 4.68745ZM3.08317 6.41944V4.16162L3.98159 4.16495L4.50415 5.62066L5.01419 4.16162H5.90545V6.41944H5.34099V4.75578L4.74265 6.41944H4.24762L3.64762 4.75578V6.41944H3.08317ZM6.29165 6.41944V4.16162H8.13356V4.66666H6.86205V5.05286H8.10385V5.5282H6.86205V5.92926H8.13356V6.41944H6.29165ZM8.46036 4.16201V6.41982H9.02482V5.61769H9.26248L9.93926 6.41982H10.6291L9.88635 5.58799C10.1912 5.56226 10.5056 5.30066 10.5056 4.89449C10.5056 4.41938 10.1327 4.16201 9.71647 4.16201H8.46036ZM9.02482 4.66704H9.67003C9.82483 4.66704 9.93741 4.78811 9.93741 4.9047C9.93741 5.05469 9.79152 5.14237 9.6784 5.14237H9.02482V4.66704ZM11.3124 6.41944H10.736V4.16162H11.3124V6.41944ZM12.6789 6.41944H12.5545C11.9526 6.41944 11.5872 5.94521 11.5872 5.29981C11.5872 4.63845 11.9485 4.16162 12.7086 4.16162H13.3325V4.69637H12.6858C12.3773 4.69637 12.159 4.93718 12.159 5.30537C12.159 5.74263 12.4086 5.92628 12.768 5.92628H12.9166L12.6789 6.41944ZM13.9072 4.16201L12.9361 6.41982H13.5683L13.7475 5.9677H14.7891L14.9674 6.41982H15.6135L14.6434 4.16201H13.9072ZM14.2665 4.68745L14.584 5.47752H13.948L14.2665 4.68745ZM15.6795 6.41944V4.16162H16.3971L17.3134 5.58019V4.16162H17.8779V6.41944H17.1834L16.2439 4.96375V6.41944H15.6795ZM4.44975 10.3706V8.1128H6.29165V8.61783H5.02014V9.00405H6.26194V9.47938H5.02014V9.88044H6.29165V10.3706H4.44975ZM13.4751 10.3706V8.1128H15.317V8.61783H14.0455V9.00405H15.2814V9.47938H14.0455V9.88044H15.317V10.3706H13.4751ZM6.36314 10.3706L7.25996 9.25565L6.34179 8.1128H7.05294L7.59976 8.81929L8.14845 8.1128H8.83174L7.92564 9.2417L8.8241 10.3706H8.11308L7.58212 9.67527L7.06409 10.3706H6.36314ZM8.89114 8.11318V10.371H9.47044V9.65802H10.0646C10.5674 9.65802 10.9484 9.39129 10.9484 8.8726C10.9484 8.44291 10.6495 8.11318 10.1379 8.11318H8.89114ZM9.47044 8.6238H10.0962C10.2586 8.6238 10.3747 8.72334 10.3747 8.88373C10.3747 9.03441 10.2592 9.14368 10.0943 9.14368H9.47044V8.6238ZM11.1935 8.1128V10.3706H11.758V9.56849H11.9956L12.6724 10.3706H13.3622L12.6195 9.5388C12.9243 9.51307 13.2387 9.25145 13.2387 8.84528C13.2387 8.37017 12.8658 8.1128 12.4496 8.1128H11.1935ZM11.758 8.61783H12.4032C12.558 8.61783 12.6706 8.7389 12.6706 8.8555C12.6706 9.00549 12.5247 9.09316 12.4116 9.09316H11.758V8.61783ZM15.5784 10.3706V9.88044H16.7081C16.8753 9.88044 16.9476 9.7901 16.9476 9.69104C16.9476 9.59612 16.8755 9.50017 16.7081 9.50017H16.1976C15.7539 9.50017 15.5068 9.22984 15.5068 8.82395C15.5068 8.46191 15.7331 8.1128 16.3925 8.1128H17.4917L17.254 8.62082H16.3033C16.1216 8.62082 16.0657 8.71616 16.0657 8.80724C16.0657 8.90081 16.1348 9.00405 16.2736 9.00405H16.8084C17.303 9.00405 17.5177 9.28462 17.5177 9.65205C17.5177 10.0471 17.2785 10.3706 16.7815 10.3706H15.5784ZM17.6501 10.3706V9.88044H18.7798C18.947 9.88044 19.0193 9.7901 19.0193 9.69104C19.0193 9.59612 18.9472 9.50017 18.7798 9.50017H18.2693C17.8256 9.50017 17.5785 9.22984 17.5785 8.82395C17.5785 8.46191 17.8048 8.1128 18.4642 8.1128H19.5634L19.3257 8.62082H18.375C18.1933 8.62082 18.1374 8.71616 18.1374 8.80724C18.1374 8.90081 18.2065 9.00405 18.3453 9.00405H18.8801C19.3747 9.00405 19.5893 9.28462 19.5893 9.65205C19.5893 10.0471 19.3502 10.3706 18.8531 10.3706H17.6501Z" fill="#016FD0"/>
</g>
<defs>
<clipPath id="clip0_14_2264">
<rect width="19.2542" height="12.8361" fill="white" transform="translate(0.331055 0.558594)"/>
</clipPath>
</defs>
</svg>
