<svg width="8" height="9" viewBox="0 0 8 9" fill="none" xmlns="http://www.w3.org/2000/svg">
<g id="bi:credit-card-2-back" clip-path="url(#clip0_14_2273)">
<g id="Group">
<path id="Vector" d="M5.5 3.70264C5.5 3.63633 5.52634 3.57274 5.57322 3.52586C5.62011 3.47898 5.6837 3.45264 5.75 3.45264H6.75C6.8163 3.45264 6.87989 3.47898 6.92678 3.52586C6.97366 3.57274 7 3.63633 7 3.70264V4.20264C7 4.26894 6.97366 4.33253 6.92678 4.37941C6.87989 4.4263 6.8163 4.45264 6.75 4.45264H5.75C5.6837 4.45264 5.62011 4.4263 5.57322 4.37941C5.52634 4.33253 5.5 4.26894 5.5 4.20264V3.70264Z" fill="#495057"/>
<path id="Vector_2" d="M1 1.95264C0.734784 1.95264 0.48043 2.05799 0.292893 2.24553C0.105357 2.43307 0 2.68742 0 2.95264L0 6.95264C0 7.21785 0.105357 7.47221 0.292893 7.65974C0.48043 7.84728 0.734784 7.95264 1 7.95264H7C7.26522 7.95264 7.51957 7.84728 7.70711 7.65974C7.89464 7.47221 8 7.21785 8 6.95264V2.95264C8 2.68742 7.89464 2.43307 7.70711 2.24553C7.51957 2.05799 7.26522 1.95264 7 1.95264H1ZM7.5 2.95264V5.45264H0.5V2.95264C0.5 2.82003 0.552678 2.69285 0.646447 2.59908C0.740215 2.50532 0.867392 2.45264 1 2.45264H7C7.13261 2.45264 7.25979 2.50532 7.35355 2.59908C7.44732 2.69285 7.5 2.82003 7.5 2.95264ZM7 7.45264H1C0.867392 7.45264 0.740215 7.39996 0.646447 7.30619C0.552678 7.21242 0.5 7.08525 0.5 6.95264V6.45264H7.5V6.95264C7.5 7.08525 7.44732 7.21242 7.35355 7.30619C7.25979 7.39996 7.13261 7.45264 7 7.45264Z" fill="#495057"/>
</g>
</g>
<defs>
<clipPath id="clip0_14_2273">
<rect width="8" height="8" fill="white" transform="translate(0 0.952637)"/>
</clipPath>
</defs>
</svg>
