<svg width="17" height="14" viewBox="0 0 17 14" fill="none" xmlns="http://www.w3.org/2000/svg">
<g id="logos:mastercard" clip-path="url(#clip0_14_2256)">
<path id="Vector" d="M3.08604 13.0643V12.2504C3.08604 11.9384 2.88431 11.7349 2.53853 11.7349C2.36568 11.7349 2.17839 11.7892 2.04871 11.9655C1.94791 11.8163 1.80386 11.7349 1.58776 11.7349C1.44365 11.7349 1.29967 11.7756 1.18437 11.9248V11.7621H0.881836V13.0643H1.18437V12.3453C1.18437 12.1148 1.31404 12.0062 1.51577 12.0062C1.71737 12.0062 1.8183 12.1283 1.8183 12.3453V13.0643H2.12083V12.3453C2.12083 12.1148 2.26481 12.0062 2.45211 12.0062C2.65384 12.0062 2.75464 12.1283 2.75464 12.3453V13.0643H3.08604ZM7.56631 11.7621H7.07656V11.3687H6.77403V11.7621H6.50031V12.0197H6.77396V12.6167C6.77396 12.9151 6.90364 13.0914 7.24941 13.0914C7.37909 13.0914 7.52307 13.0508 7.624 12.9965L7.5375 12.7523C7.45108 12.8066 7.35028 12.8202 7.27822 12.8202C7.13417 12.8202 7.07656 12.7388 7.07656 12.6031V12.0197H7.56631V11.7621ZM10.1307 11.7349C9.95781 11.7349 9.84258 11.8163 9.77052 11.9248V11.7621H9.46799V13.0643H9.77052V12.3318C9.77052 12.1148 9.87132 11.9927 10.0586 11.9927C10.1162 11.9927 10.1883 12.0063 10.2459 12.0198L10.3323 11.7485C10.2747 11.7349 10.1883 11.7349 10.1307 11.7349V11.7349ZM6.25539 11.8706C6.11128 11.7756 5.90962 11.7349 5.69351 11.7349C5.3478 11.7349 5.11733 11.8977 5.11733 12.1554C5.11733 12.3725 5.29018 12.4946 5.59271 12.5353L5.73676 12.5489C5.89524 12.5759 5.98167 12.6167 5.98167 12.6845C5.98167 12.7794 5.86644 12.8473 5.6647 12.8473C5.46304 12.8473 5.30455 12.7794 5.20369 12.7116L5.05964 12.9287C5.21813 13.0372 5.43423 13.0914 5.65027 13.0914C6.05366 13.0914 6.2842 12.9151 6.2842 12.6709C6.2842 12.4403 6.09691 12.3182 5.80875 12.2775L5.6647 12.2639C5.53503 12.2504 5.43423 12.2233 5.43423 12.1419C5.43423 12.0469 5.53503 11.9927 5.69351 11.9927C5.86643 11.9927 6.03929 12.0605 6.12572 12.1012L6.25539 11.8706ZM14.2941 11.7349C14.1212 11.7349 14.0059 11.8163 13.9339 11.9248V11.7621H13.6314V13.0643H13.9339V12.3318C13.9339 12.1148 14.0348 11.9927 14.222 11.9927C14.2797 11.9927 14.3517 12.0063 14.4093 12.0198L14.4958 11.7485C14.4382 11.7349 14.3517 11.7349 14.2941 11.7349ZM10.4332 12.4132C10.4332 12.8066 10.7213 13.0914 11.1679 13.0914C11.3696 13.0914 11.5136 13.0508 11.6577 12.9423L11.5136 12.7116C11.3984 12.793 11.2832 12.8337 11.1535 12.8337C10.9086 12.8337 10.7357 12.6709 10.7357 12.4132C10.7357 12.169 10.9086 12.0062 11.1535 11.9927C11.2832 11.9927 11.3984 12.0333 11.5136 12.1148L11.6577 11.8842C11.5136 11.7756 11.3696 11.7349 11.1679 11.7349C10.7213 11.7349 10.4332 12.0198 10.4332 12.4132ZM13.228 12.4132V11.7621H12.9255V11.9248C12.8246 11.8028 12.6806 11.7349 12.4933 11.7349C12.1043 11.7349 11.8018 12.0198 11.8018 12.4132C11.8018 12.8066 12.1043 13.0914 12.4933 13.0914C12.695 13.0914 12.8391 13.0236 12.9255 12.9015V13.0643H13.228V12.4132ZM12.1187 12.4132C12.1187 12.1826 12.2772 11.9927 12.5365 11.9927C12.7814 11.9927 12.9543 12.169 12.9543 12.4132C12.9543 12.6438 12.7814 12.8337 12.5365 12.8337C12.2772 12.8201 12.1187 12.6438 12.1187 12.4132ZM8.50278 11.7349C8.09938 11.7349 7.81123 12.0062 7.81123 12.4132C7.81123 12.8202 8.09932 13.0914 8.51715 13.0914C8.71882 13.0914 8.92055 13.0372 9.07903 12.9151L8.93492 12.7116C8.81968 12.793 8.67564 12.8473 8.53159 12.8473C8.3443 12.8473 8.157 12.7659 8.11376 12.5352H9.13665V12.4268C9.15109 12.0062 8.89174 11.7349 8.50272 11.7349H8.50278ZM8.50278 11.9791C8.69001 11.9791 8.81975 12.0877 8.84849 12.2911H8.12819C8.157 12.1148 8.28668 11.9791 8.50278 11.9791ZM16.0084 12.4132V11.2466H15.7059V11.9248C15.605 11.8028 15.461 11.7349 15.2737 11.7349C14.8847 11.7349 14.5822 12.0198 14.5822 12.4132C14.5822 12.8066 14.8847 13.0914 15.2737 13.0914C15.4754 13.0914 15.6195 13.0236 15.7059 12.9015V13.0643H16.0084V12.4132ZM14.8992 12.4132C14.8992 12.1826 15.0576 11.9927 15.3169 11.9927C15.5618 11.9927 15.7347 12.169 15.7347 12.4132C15.7347 12.6438 15.5618 12.8337 15.3169 12.8337C15.0576 12.8201 14.8992 12.6438 14.8992 12.4132ZM4.78592 12.4132V11.7621H4.48339V11.9248C4.38253 11.8028 4.23848 11.7349 4.05119 11.7349C3.66223 11.7349 3.3597 12.0198 3.3597 12.4132C3.3597 12.8066 3.66223 13.0914 4.05119 13.0914C4.25292 13.0914 4.39696 13.0236 4.48339 12.9015V13.0643H4.78592V12.4132ZM3.66223 12.4132C3.66223 12.1826 3.82071 11.9927 4.08 11.9927C4.32491 11.9927 4.49783 12.169 4.49783 12.4132C4.49783 12.6438 4.32491 12.8337 4.08 12.8337C3.82071 12.8201 3.66223 12.6438 3.66223 12.4132Z" fill="black"/>
<path id="Vector_2" d="M6.15527 1.87305H10.6932V9.55094H6.15527V1.87305Z" fill="#FF5F00"/>
<path id="Vector_3" d="M6.44305 5.7116C6.44305 4.15162 7.22097 2.76794 8.41665 1.87262C7.53793 1.2215 6.42868 0.828125 5.21856 0.828125C2.3516 0.828125 0.0322266 3.01209 0.0322266 5.7116C0.0322266 8.41104 2.3516 10.5951 5.21849 10.5951C6.42861 10.5951 7.53787 10.2017 8.41665 9.55051C7.22097 8.66878 6.44305 7.27157 6.44305 5.7116Z" fill="#EB001B"/>
<path id="Vector_4" d="M16.8151 5.7116C16.8151 8.41104 14.4957 10.5951 11.6288 10.5951C10.4187 10.5951 9.30945 10.2017 8.43066 9.55051C9.64079 8.65525 10.4043 7.27157 10.4043 5.7116C10.4043 4.15162 9.62635 2.76794 8.43066 1.87262C9.30938 1.2215 10.4187 0.828125 11.6288 0.828125C14.4957 0.828125 16.8152 3.02568 16.8152 5.7116H16.8151Z" fill="#F79E1B"/>
</g>
<defs>
<clipPath id="clip0_14_2256">
<rect width="16.8" height="12.2969" fill="white" transform="translate(0.0302734 0.828125)"/>
</clipPath>
</defs>
</svg>
