<svg width="33" height="14" viewBox="0 0 33 14" fill="none" xmlns="http://www.w3.org/2000/svg">
<g id="stripe-seeklogo.com 1" clip-path="url(#clip0_14_2253)">
<g id="Group">
<path id="Vector" d="M2.31115 5.44222C2.31115 5.08058 2.60297 4.94148 3.08631 4.94148C3.77939 4.94148 4.65487 5.15476 5.34795 5.53495V3.35582C4.59103 3.04981 3.84323 2.92926 3.08631 2.92926C1.23504 2.92926 0.00390625 3.91219 0.00390625 5.5535C0.00390625 8.11282 3.46933 7.70481 3.46933 8.80829C3.46933 9.23484 3.10455 9.37393 2.59385 9.37393C1.83693 9.37393 0.870262 9.05866 0.104221 8.6321V10.8391C0.952338 11.21 1.80957 11.3676 2.59385 11.3676C4.49072 11.3676 5.79481 10.4125 5.79481 8.75265C5.78569 5.98932 2.31115 6.48079 2.31115 5.44222ZM8.47596 1.07468L6.25079 1.55687L6.24167 8.98447C6.24167 10.3569 7.25394 11.3676 8.60363 11.3676C9.35143 11.3676 9.8986 11.2285 10.1995 11.0616V9.1792C9.90772 9.29975 8.46684 9.72631 8.46684 8.35392V5.06203H10.1995V3.0869H8.46684L8.47596 1.07468ZM13.0357 3.7731L12.8898 3.0869H10.92V11.2007H13.1999V5.70186C13.7379 4.98785 14.6499 5.11767 14.9326 5.21967V3.0869C14.6408 2.97563 13.5738 2.77162 13.0357 3.7731ZM15.4889 3.0869H17.7779V11.2007H15.4889V3.0869ZM15.4889 2.38216L17.7779 1.88142V-0.000976562L15.4889 0.490488V2.38216ZM22.5383 2.92926C21.6446 2.92926 21.07 3.35582 20.7509 3.65255L20.6323 3.07763H18.626V13.8898L20.9059 13.3984L20.915 10.7741C21.2433 11.0152 21.7266 11.3583 22.5292 11.3583C24.1616 11.3583 25.648 10.023 25.648 7.08353C25.6389 4.39438 24.1342 2.92926 22.5383 2.92926ZM21.9911 9.3183C21.4531 9.3183 21.1339 9.12357 20.915 8.88247L20.9059 5.44222C21.143 5.17331 21.4713 4.98785 21.9911 4.98785C22.821 4.98785 23.3955 5.93369 23.3955 7.14844C23.3955 8.39101 22.8301 9.3183 21.9911 9.3183ZM32.8342 7.17626C32.8342 4.80239 31.7034 2.92926 29.5421 2.92926C27.3716 2.92926 26.0584 4.80239 26.0584 7.15771C26.0584 9.94885 27.6087 11.3583 29.8339 11.3583C30.9191 11.3583 31.7399 11.108 32.36 10.7556V8.90102C31.7399 9.2163 31.0286 9.41103 30.1257 9.41103C29.2411 9.41103 28.4569 9.09575 28.3565 8.00154H32.816C32.816 7.881 32.8342 7.39881 32.8342 7.17626ZM28.3292 6.29533C28.3292 5.24749 28.9584 4.81166 29.533 4.81166C30.0893 4.81166 30.682 5.24749 30.682 6.29533H28.3292Z" fill="#6772E5"/>
</g>
</g>
<defs>
<clipPath id="clip0_14_2253">
<rect width="32.8303" height="13.9528" fill="white"/>
</clipPath>
</defs>
</svg>
