<svg width="20" height="8" viewBox="0 0 20 8" fill="none" xmlns="http://www.w3.org/2000/svg">
<g id="logos:visa" clip-path="url(#clip0_14_2261)">
<path id="Vector" d="M9.91065 2.77274C9.89976 3.69193 10.6764 4.20484 11.2614 4.50983C11.8625 4.82271 12.0644 5.02338 12.062 5.30322C12.0575 5.73144 11.5826 5.92045 11.1381 5.9278C10.3627 5.94065 9.91177 5.70383 9.55334 5.52471L9.27399 6.92305C9.63362 7.10033 10.2995 7.25493 10.9901 7.26172C12.611 7.26172 13.6715 6.40575 13.6772 5.07861C13.6836 3.39429 11.4994 3.30106 11.5144 2.54821C11.5195 2.31993 11.7231 2.07633 12.1693 2.01439C12.3902 1.9831 12.9998 1.95916 13.691 2.29966L13.9623 0.946742C13.5906 0.801951 13.1129 0.663307 12.5181 0.663307C10.9924 0.663307 9.91931 1.53093 9.91065 2.77274ZM16.5691 0.779841C16.2731 0.779841 16.0237 0.96454 15.9124 1.24797L13.5969 7.16235H15.2167L15.539 6.2094H17.5183L17.7053 7.16235H19.1329L17.8871 0.779841H16.5691ZM16.7957 2.50399L17.2632 4.9007H15.983L16.7957 2.50399ZM7.94679 0.779921L6.67002 7.16227H8.21352L9.48969 0.779762H7.94679M5.66343 0.779762L4.05688 5.12403L3.40701 1.43028C3.33076 1.01794 3.02962 0.779841 2.69521 0.779841H0.0690104L0.0322266 0.965179C0.571374 1.09033 1.18394 1.29219 1.55506 1.50818C1.78218 1.64012 1.84694 1.75546 1.92156 2.06899L3.15243 7.16235H4.78353L7.28423 0.779841H5.66343" fill="url(#paint0_linear_14_2261)"/>
</g>
<defs>
<linearGradient id="paint0_linear_14_2261" x1="8.81359" y1="7.39408" x2="9.01789" y2="0.618194" gradientUnits="userSpaceOnUse">
<stop stop-color="#222357"/>
<stop offset="1" stop-color="#254AA5"/>
</linearGradient>
<clipPath id="clip0_14_2261">
<rect width="19.1007" height="6.62491" fill="white" transform="translate(0.0302734 0.664062)"/>
</clipPath>
</defs>
</svg>
